<?xml version="1.0" encoding="UTF-8"?>
<svg id="Capa_1" data-name="Capa 1" xmlns="http://www.w3.org/2000/svg" xmlns:xlink="http://www.w3.org/1999/xlink" viewBox="0 0 25.39 39.87">
  <defs>
    <style>
      .cls-1 {
        fill: none;
      }

      .cls-2 {
        fill: #935241;
      }

      .cls-3 {
        fill-rule: evenodd;
      }

      .cls-3, .cls-4 {
        fill: #74c4bc;
      }

      .cls-5 {
        fill: #8a5d9b;
      }

      .cls-6 {
        fill: url(#New_Pattern_Swatch_1);
      }
    </style>
    <pattern id="New_Pattern_Swatch_1" data-name="New Pattern Swatch 1" x="0" y="0" width="73.43" height="116.08" patternTransform="translate(-14334.46 -2009.21) scale(.12 -.12)" patternUnits="userSpaceOnUse" viewBox="0 0 73.43 116.08">
      <g>
        <rect class="cls-1" width="73.43" height="116.08"/>
        <g>
          <rect class="cls-1" width="73.43" height="116.08"/>
          <rect class="cls-2" width="73.43" height="116.08"/>
        </g>
      </g>
    </pattern>
  </defs>
  <g>
    <path class="cls-6" d="M6.26,10.65c-.08.04-.14.11-.18.2v.04c0,.71-.03,1.45-.07,2.24-.11,2.01-.23,4.1.58,5.84.31.69.78,1.29,1.22,1.87.19.25.38.5.56.76.59.83,1.42,2.08,1.98,3.24.45.93.16,1.66-.19,2.51-.07.18-.15.35-.22.55-.47,1.31-.74,2.63-.93,3.76-.11.62-.21,1.25-.3,1.85-.12.75-.24,1.51-.37,2.27-.14.75-.26,1.35-.41,1.91-.03.11-.06.22-.1.32-.13.41-.28.88-.08,1.32l.03.07h.07c.1.02.2.02.3.03.65.06,1.32.12,1.72.41l.09.04.09-.07c.08-.15.23-.26.37-.37.26-.21.56-.43.52-.87-.03-.36-.11-.73-.19-1.08-.05-.24-.11-.49-.15-.73-.25-1.55-.33-3.08-.26-4.54v-.02c.08-1.69.25-5.19,2.37-5.45h.02s.1-.03.15-.05h.02c2.07-1,3.79-2.64,5.12-4.88.74-1.24,1.23-2.57,1.65-3.83.1-.28.19-.56.27-.83.14-.41.26-.79.39-1.19.07-.21.17-.4.26-.61.19-.4.38-.81.4-1.28l-.05-.08-.06-.05c-.66-.07-1.19,1.36-1.62,2.71-.05.16-.09.27-.12.35-.08.23-.17.45-.25.68-.36,1.01-.75,2.05-1.25,3.01-.55,1.06-1.36,2.03-2.48,2.99-.12.1-.24.21-.37.33-.75.67-1.76,1.57-2.61,1.62.1-.66.3-1.31.5-1.93.11-.33.22-.68.3-1.02.26-.93.33-1.92.26-3.01-.07-.89-.22-1.79-.37-2.66-.21-1.22-.43-2.48-.39-3.74v-.41l-.23.34c-.25.36-.22.86-.18,1.31,0,.14.02.26.02.38,0,.56,0,1.07.03,1.54.03.98.07,1.95.2,2.91.14,1.05.22,1.93-.12,2.89-.17.47-.4.92-.64,1.36-.12.22-.23.44-.34.67-.27-.4-.54-.82-.79-1.24-.45-.73-.91-1.48-1.48-2.15-.1-.11-.19-.22-.28-.33-.67-.77-1.29-1.49-1.57-2.47-.39-1.37-.39-2.84-.39-4.26,0-1.02,0-2.08-.15-3.1l-.05-.07-.07-.04-.18.02h0Z"/>
    <g>
      <path class="cls-4" d="M23.99,5.7C21.36,1.89,15.91.2,11.5.02c-1.15-.05-2.3,0-3.43.24-.32.13-.64.24-.96.34-.89.41-1.78.82-2.64,1.32C2.74,2.91.71,4.06.16,6.14-.14,7.28,0,8.54.44,9.62c.36.87,1.25,1.45,1.51,2.36.33,1.13-.15,2.26.85,3.14.71.62,1.71.83,2.62.8.2-.17.46-.48.27-.88-.99-.42-2.15-.1-2.71-1.28-.23-.47-.05-1.06-.03-1.56.02-.53-.21-.92-.52-1.32-.66-.82-1.37-1.63-1.38-2.75,0-1.02.38-2.22.95-3.06.61-.91,1.67-1.28,2.6-1.79.99-.54,1.98-1.08,3.03-1.49,2.06-.81,4.41-1,6.6-.68,3.81.57,8.74,2.97,9.99,6.92.69,2.17.15,4.46-1.01,6.36-.59.95-1.27,1.95-2.21,2.6-.34.24-.48.25-.85.42-.15.07-.21.28-.23.33l-.03.13c0,.19,0,.32.14.47.05.06.12.1.2.1.52,0,.94-.4,1.32-.63,3.98-2.36,5-8.38,2.41-12.1"/>
      <path class="cls-4" d="M12.71,8.41c-.54.18-1.21.07-1.07-.65-.53.51-1.11-.3-1.16-.79-.07.39-.08,1.32-.65,1.34-.47.03-.62-.64-1.07-.65.62.59.15,1.53-.65,1.58,1.09-.09.83,1.43.42,1.99.25-.1.4-.28.7-.27.04.76-.87,1.51-1.1,2.22-.23.72-.22,1.52.11,2.21.37.79,1.1,1.23,1.95,1.3.48.04.96,0,1.43-.08.49-.07.29-.61.2-1.02-1.16.29-2.57.14-2.94-1.17-.33-1.18.46-2.8,1.55-3.33.18.21.09.52.24.75.06-.79.73-1.65,1.58-1.21-.36-.47-.39-.84.32-.83-.64-.29-.46-1.17.14-1.39M10.49,10.54c-1.22.02-1.52-1.87-.19-2.09,1.45-.23,1.63,2.06.19,2.09"/>
      <path class="cls-3" d="M13.14,16.45c-.07-.03-.27-.39-.29-.44-.02-.08-.1-.17-.09-.51,0-.55,1.34-.74,2.09-.71,1.15.05,2.56.67,3.44,1.3.28.21.75.45.77.62.04.37-.44,1-.56.93l-.1-.02c-1.03-.74-2-2.06-3.68-1.72-.64.13-1.19.35-1.42.47,0,0-.15.08-.15.08Z"/>
    </g>
  </g>
  <g>
    <path class="cls-5" d="M12.75,37c-.63,0-1.15.52-1.15,1.16s.51,1.16,1.15,1.16,1.15-.52,1.15-1.16-.51-1.16-1.15-1.16ZM12.75,39.02c-.48,0-.85-.38-.85-.85s.37-.86.85-.86.84.37.84.86-.37.85-.84.85Z"/>
    <path class="cls-5" d="M13.11,38.68c-.08.04-.17.06-.26.06-.21,0-.36-.07-.48-.21-.1-.11-.15-.24-.15-.38s.05-.27.15-.38c.12-.14.27-.21.48-.21.09,0,.18.02.26.06v.33c-.07-.05-.14-.07-.21-.07-.08,0-.14.03-.2.08-.05.05-.08.12-.08.2s.03.15.08.2c.05.05.12.08.2.08.07,0,.14-.02.21-.07v.33-.02Z"/>
  </g>
</svg>